<?xml version="1.0" encoding="UTF-8"?>
<svg xmlns="http://www.w3.org/2000/svg" xmlns:xlink="http://www.w3.org/1999/xlink" width="80px" height="98px" viewBox="0 0 80 99" version="1.1">
<defs>
<linearGradient id="linear0" gradientUnits="userSpaceOnUse" x1="7.31" y1="34.19" x2="31.39" y2="34.19" gradientTransform="matrix(1.762891,0,0,1.753054,-12.886734,-3.091607)">
<stop offset="0" style="stop-color:rgb(13.333333%,41.176471%,96.078431%);stop-opacity:1;"/>
<stop offset="0.09" style="stop-color:rgb(18.039216%,44.705882%,96.470588%);stop-opacity:1;"/>
<stop offset="0.3" style="stop-color:rgb(28.627451%,51.764706%,97.254902%);stop-opacity:1;"/>
<stop offset="0.53" style="stop-color:rgb(36.078431%,56.862745%,97.647059%);stop-opacity:1;"/>
<stop offset="0.76" style="stop-color:rgb(40.392157%,59.607843%,98.039216%);stop-opacity:1;"/>
<stop offset="1" style="stop-color:rgb(41.960784%,60.784314%,98.039216%);stop-opacity:1;"/>
</linearGradient>
<linearGradient id="linear1" gradientUnits="userSpaceOnUse" x1="34.24" y1="41.2" x2="35.95" y2="41.2" gradientTransform="matrix(1.762891,0,0,1.753054,-12.886734,-3.091607)">
<stop offset="0" style="stop-color:rgb(13.333333%,41.176471%,96.078431%);stop-opacity:1;"/>
<stop offset="0.09" style="stop-color:rgb(18.039216%,44.705882%,96.470588%);stop-opacity:1;"/>
<stop offset="0.3" style="stop-color:rgb(28.627451%,51.764706%,97.254902%);stop-opacity:1;"/>
<stop offset="0.53" style="stop-color:rgb(36.078431%,56.862745%,97.647059%);stop-opacity:1;"/>
<stop offset="0.76" style="stop-color:rgb(40.392157%,59.607843%,98.039216%);stop-opacity:1;"/>
<stop offset="1" style="stop-color:rgb(41.960784%,60.784314%,98.039216%);stop-opacity:1;"/>
</linearGradient>
<linearGradient id="linear2" gradientUnits="userSpaceOnUse" x1="34.3" y1="34.92" x2="35.95" y2="34.92" gradientTransform="matrix(1.762891,0,0,1.753054,-12.886734,-3.091607)">
<stop offset="0" style="stop-color:rgb(13.333333%,41.176471%,96.078431%);stop-opacity:1;"/>
<stop offset="0.09" style="stop-color:rgb(18.039216%,44.705882%,96.470588%);stop-opacity:1;"/>
<stop offset="0.3" style="stop-color:rgb(28.627451%,51.764706%,97.254902%);stop-opacity:1;"/>
<stop offset="0.53" style="stop-color:rgb(36.078431%,56.862745%,97.647059%);stop-opacity:1;"/>
<stop offset="0.76" style="stop-color:rgb(40.392157%,59.607843%,98.039216%);stop-opacity:1;"/>
<stop offset="1" style="stop-color:rgb(41.960784%,60.784314%,98.039216%);stop-opacity:1;"/>
</linearGradient>
<linearGradient id="linear3" gradientUnits="userSpaceOnUse" x1="30.51" y1="27.53" x2="32.12" y2="27.53" gradientTransform="matrix(1.762891,0,0,1.753054,-12.886734,-3.091607)">
<stop offset="0" style="stop-color:rgb(13.333333%,41.176471%,96.078431%);stop-opacity:1;"/>
<stop offset="0.09" style="stop-color:rgb(18.039216%,44.705882%,96.470588%);stop-opacity:1;"/>
<stop offset="0.3" style="stop-color:rgb(28.627451%,51.764706%,97.254902%);stop-opacity:1;"/>
<stop offset="0.53" style="stop-color:rgb(36.078431%,56.862745%,97.647059%);stop-opacity:1;"/>
<stop offset="0.76" style="stop-color:rgb(40.392157%,59.607843%,98.039216%);stop-opacity:1;"/>
<stop offset="1" style="stop-color:rgb(41.960784%,60.784314%,98.039216%);stop-opacity:1;"/>
</linearGradient>
<linearGradient id="linear4" gradientUnits="userSpaceOnUse" x1="33.79" y1="27.56" x2="35.43" y2="27.56" gradientTransform="matrix(1.762891,0,0,1.753054,-12.886734,-3.091607)">
<stop offset="0" style="stop-color:rgb(13.333333%,41.176471%,96.078431%);stop-opacity:1;"/>
<stop offset="0.09" style="stop-color:rgb(18.039216%,44.705882%,96.470588%);stop-opacity:1;"/>
<stop offset="0.3" style="stop-color:rgb(28.627451%,51.764706%,97.254902%);stop-opacity:1;"/>
<stop offset="0.53" style="stop-color:rgb(36.078431%,56.862745%,97.647059%);stop-opacity:1;"/>
<stop offset="0.76" style="stop-color:rgb(40.392157%,59.607843%,98.039216%);stop-opacity:1;"/>
<stop offset="1" style="stop-color:rgb(41.960784%,60.784314%,98.039216%);stop-opacity:1;"/>
</linearGradient>
<linearGradient id="linear5" gradientUnits="userSpaceOnUse" x1="30.51" y1="23.67" x2="32.1" y2="23.67" gradientTransform="matrix(1.762891,0,0,1.753054,-12.886734,-3.091607)">
<stop offset="0" style="stop-color:rgb(13.333333%,41.176471%,96.078431%);stop-opacity:1;"/>
<stop offset="0.09" style="stop-color:rgb(18.039216%,44.705882%,96.470588%);stop-opacity:1;"/>
<stop offset="0.3" style="stop-color:rgb(28.627451%,51.764706%,97.254902%);stop-opacity:1;"/>
<stop offset="0.53" style="stop-color:rgb(36.078431%,56.862745%,97.647059%);stop-opacity:1;"/>
<stop offset="0.76" style="stop-color:rgb(40.392157%,59.607843%,98.039216%);stop-opacity:1;"/>
<stop offset="1" style="stop-color:rgb(41.960784%,60.784314%,98.039216%);stop-opacity:1;"/>
</linearGradient>
<linearGradient id="linear6" gradientUnits="userSpaceOnUse" x1="33.82" y1="21.86" x2="35.42" y2="21.86" gradientTransform="matrix(1.762891,0,0,1.753054,-12.886734,-3.091607)">
<stop offset="0" style="stop-color:rgb(13.333333%,41.176471%,96.078431%);stop-opacity:1;"/>
<stop offset="0.09" style="stop-color:rgb(18.039216%,44.705882%,96.470588%);stop-opacity:1;"/>
<stop offset="0.3" style="stop-color:rgb(28.627451%,51.764706%,97.254902%);stop-opacity:1;"/>
<stop offset="0.53" style="stop-color:rgb(36.078431%,56.862745%,97.647059%);stop-opacity:1;"/>
<stop offset="0.76" style="stop-color:rgb(40.392157%,59.607843%,98.039216%);stop-opacity:1;"/>
<stop offset="1" style="stop-color:rgb(41.960784%,60.784314%,98.039216%);stop-opacity:1;"/>
</linearGradient>
<linearGradient id="linear7" gradientUnits="userSpaceOnUse" x1="24.6" y1="42.11" x2="26.25" y2="42.11" gradientTransform="matrix(1.762891,0,0,1.753054,-12.886734,-3.091607)">
<stop offset="0" style="stop-color:rgb(13.333333%,41.176471%,96.078431%);stop-opacity:1;"/>
<stop offset="0.09" style="stop-color:rgb(18.039216%,44.705882%,96.470588%);stop-opacity:1;"/>
<stop offset="0.3" style="stop-color:rgb(28.627451%,51.764706%,97.254902%);stop-opacity:1;"/>
<stop offset="0.53" style="stop-color:rgb(36.078431%,56.862745%,97.647059%);stop-opacity:1;"/>
<stop offset="0.76" style="stop-color:rgb(40.392157%,59.607843%,98.039216%);stop-opacity:1;"/>
<stop offset="1" style="stop-color:rgb(41.960784%,60.784314%,98.039216%);stop-opacity:1;"/>
</linearGradient>
<linearGradient id="linear8" gradientUnits="userSpaceOnUse" x1="21.92" y1="43.68" x2="23.63" y2="43.68" gradientTransform="matrix(1.762891,0,0,1.753054,-12.886734,-3.091607)">
<stop offset="0" style="stop-color:rgb(13.333333%,41.176471%,96.078431%);stop-opacity:1;"/>
<stop offset="0.09" style="stop-color:rgb(18.039216%,44.705882%,96.470588%);stop-opacity:1;"/>
<stop offset="0.3" style="stop-color:rgb(28.627451%,51.764706%,97.254902%);stop-opacity:1;"/>
<stop offset="0.53" style="stop-color:rgb(36.078431%,56.862745%,97.647059%);stop-opacity:1;"/>
<stop offset="0.76" style="stop-color:rgb(40.392157%,59.607843%,98.039216%);stop-opacity:1;"/>
<stop offset="1" style="stop-color:rgb(41.960784%,60.784314%,98.039216%);stop-opacity:1;"/>
</linearGradient>
<linearGradient id="linear9" gradientUnits="userSpaceOnUse" x1="24.6" y1="38.25" x2="26.24" y2="38.25" gradientTransform="matrix(1.762891,0,0,1.753054,-12.886734,-3.091607)">
<stop offset="0" style="stop-color:rgb(13.333333%,41.176471%,96.078431%);stop-opacity:1;"/>
<stop offset="0.09" style="stop-color:rgb(18.039216%,44.705882%,96.470588%);stop-opacity:1;"/>
<stop offset="0.3" style="stop-color:rgb(28.627451%,51.764706%,97.254902%);stop-opacity:1;"/>
<stop offset="0.53" style="stop-color:rgb(36.078431%,56.862745%,97.647059%);stop-opacity:1;"/>
<stop offset="0.76" style="stop-color:rgb(40.392157%,59.607843%,98.039216%);stop-opacity:1;"/>
<stop offset="1" style="stop-color:rgb(41.960784%,60.784314%,98.039216%);stop-opacity:1;"/>
</linearGradient>
<linearGradient id="linear10" gradientUnits="userSpaceOnUse" x1="21.91" y1="35.97" x2="23.57" y2="35.97" gradientTransform="matrix(1.762891,0,0,1.753054,-12.886734,-3.091607)">
<stop offset="0" style="stop-color:rgb(13.333333%,41.176471%,96.078431%);stop-opacity:1;"/>
<stop offset="0.09" style="stop-color:rgb(18.039216%,44.705882%,96.470588%);stop-opacity:1;"/>
<stop offset="0.3" style="stop-color:rgb(28.627451%,51.764706%,97.254902%);stop-opacity:1;"/>
<stop offset="0.53" style="stop-color:rgb(36.078431%,56.862745%,97.647059%);stop-opacity:1;"/>
<stop offset="0.76" style="stop-color:rgb(40.392157%,59.607843%,98.039216%);stop-opacity:1;"/>
<stop offset="1" style="stop-color:rgb(41.960784%,60.784314%,98.039216%);stop-opacity:1;"/>
</linearGradient>
<linearGradient id="linear11" gradientUnits="userSpaceOnUse" x1="45.88" y1="35.17" x2="47.53" y2="35.17" gradientTransform="matrix(1.762891,0,0,1.753054,-12.886734,-3.091607)">
<stop offset="0" style="stop-color:rgb(13.333333%,41.176471%,96.078431%);stop-opacity:1;"/>
<stop offset="0.09" style="stop-color:rgb(18.039216%,44.705882%,96.470588%);stop-opacity:1;"/>
<stop offset="0.3" style="stop-color:rgb(28.627451%,51.764706%,97.254902%);stop-opacity:1;"/>
<stop offset="0.53" style="stop-color:rgb(36.078431%,56.862745%,97.647059%);stop-opacity:1;"/>
<stop offset="0.76" style="stop-color:rgb(40.392157%,59.607843%,98.039216%);stop-opacity:1;"/>
<stop offset="1" style="stop-color:rgb(41.960784%,60.784314%,98.039216%);stop-opacity:1;"/>
</linearGradient>
<linearGradient id="linear12" gradientUnits="userSpaceOnUse" x1="45.88" y1="31.31" x2="47.57" y2="31.31" gradientTransform="matrix(1.762891,0,0,1.753054,-12.886734,-3.091607)">
<stop offset="0" style="stop-color:rgb(13.333333%,41.176471%,96.078431%);stop-opacity:1;"/>
<stop offset="0.09" style="stop-color:rgb(18.039216%,44.705882%,96.470588%);stop-opacity:1;"/>
<stop offset="0.3" style="stop-color:rgb(28.627451%,51.764706%,97.254902%);stop-opacity:1;"/>
<stop offset="0.53" style="stop-color:rgb(36.078431%,56.862745%,97.647059%);stop-opacity:1;"/>
<stop offset="0.76" style="stop-color:rgb(40.392157%,59.607843%,98.039216%);stop-opacity:1;"/>
<stop offset="1" style="stop-color:rgb(41.960784%,60.784314%,98.039216%);stop-opacity:1;"/>
</linearGradient>
<linearGradient id="linear13" gradientUnits="userSpaceOnUse" x1="19.66" y1="31.41" x2="53.36" y2="31.41" gradientTransform="matrix(1.762891,0,0,1.753054,-12.886734,-3.091607)">
<stop offset="0" style="stop-color:rgb(13.333333%,41.176471%,96.078431%);stop-opacity:1;"/>
<stop offset="0.09" style="stop-color:rgb(18.039216%,44.705882%,96.470588%);stop-opacity:1;"/>
<stop offset="0.3" style="stop-color:rgb(28.627451%,51.764706%,97.254902%);stop-opacity:1;"/>
<stop offset="0.53" style="stop-color:rgb(36.078431%,56.862745%,97.647059%);stop-opacity:1;"/>
<stop offset="0.76" style="stop-color:rgb(40.392157%,59.607843%,98.039216%);stop-opacity:1;"/>
<stop offset="1" style="stop-color:rgb(41.960784%,60.784314%,98.039216%);stop-opacity:1;"/>
</linearGradient>
<linearGradient id="linear14" gradientUnits="userSpaceOnUse" x1="19.66" y1="29.36" x2="53.36" y2="29.36" gradientTransform="matrix(1.762891,0,0,1.753054,-12.886734,-3.091607)">
<stop offset="0" style="stop-color:rgb(13.333333%,41.176471%,96.078431%);stop-opacity:1;"/>
<stop offset="0.09" style="stop-color:rgb(18.039216%,44.705882%,96.470588%);stop-opacity:1;"/>
<stop offset="0.3" style="stop-color:rgb(28.627451%,51.764706%,97.254902%);stop-opacity:1;"/>
<stop offset="0.53" style="stop-color:rgb(36.078431%,56.862745%,97.647059%);stop-opacity:1;"/>
<stop offset="0.76" style="stop-color:rgb(40.392157%,59.607843%,98.039216%);stop-opacity:1;"/>
<stop offset="1" style="stop-color:rgb(41.960784%,60.784314%,98.039216%);stop-opacity:1;"/>
</linearGradient>
<linearGradient id="linear15" gradientUnits="userSpaceOnUse" x1="7.39" y1="25.71" x2="52.69" y2="25.71" gradientTransform="matrix(1.762891,0,0,1.753054,-12.886734,-3.091607)">
<stop offset="0" style="stop-color:rgb(13.333333%,41.176471%,96.078431%);stop-opacity:1;"/>
<stop offset="0.09" style="stop-color:rgb(18.039216%,44.705882%,96.470588%);stop-opacity:1;"/>
<stop offset="0.3" style="stop-color:rgb(28.627451%,51.764706%,97.254902%);stop-opacity:1;"/>
<stop offset="0.53" style="stop-color:rgb(36.078431%,56.862745%,97.647059%);stop-opacity:1;"/>
<stop offset="0.76" style="stop-color:rgb(40.392157%,59.607843%,98.039216%);stop-opacity:1;"/>
<stop offset="1" style="stop-color:rgb(41.960784%,60.784314%,98.039216%);stop-opacity:1;"/>
</linearGradient>
</defs>
<g id="surface1">
<path style=" stroke:none;fill-rule:nonzero;fill:url(#linear0);" d="M 42.449219 88.066406 C 42.429688 93.671875 37.84375 98.203125 32.207031 98.183594 C 21.824219 98.183594 11.441406 98.183594 1.058594 98.183594 C 0.0351562 98.183594 0 97.726562 0 96.972656 C 0 78.085938 0 59.21875 0 40.367188 L 0 16.824219 C 0 15.578125 0 15.578125 1.269531 15.578125 C 3.789062 15.578125 6.328125 15.578125 8.867188 15.578125 C 9.800781 15.578125 10.117188 15.769531 10.117188 16.789062 C 10.117188 39.988281 10.117188 63.183594 10.117188 86.382812 C 10.117188 88.433594 9.941406 88.136719 11.882812 88.136719 L 41.199219 88.136719 Z M 42.449219 88.066406 "/>
<path style=" stroke:none;fill-rule:nonzero;fill:url(#linear1);" d="M 50.578125 65.980469 C 50.578125 67.503906 50.578125 68.871094 50.578125 70.222656 C 50.566406 70.402344 50.484375 70.574219 50.347656 70.695312 C 49.503906 71.21875 48.585938 71.710938 47.632812 72.273438 C 47.695312 71.398438 47.695312 70.519531 47.632812 69.644531 C 47.460938 69.03125 47.539062 68.375 47.855469 67.824219 C 48.167969 67.269531 48.691406 66.863281 49.308594 66.699219 C 49.75 66.496094 50.175781 66.253906 50.578125 65.980469 Z M 50.578125 65.980469 "/>
<path style=" stroke:none;fill-rule:nonzero;fill:url(#linear2);" d="M 50.578125 54.988281 C 50.578125 56.53125 50.578125 57.863281 50.578125 59.210938 C 50.578125 59.371094 50.515625 59.523438 50.402344 59.632812 C 49.539062 60.175781 48.636719 60.683594 47.667969 61.261719 C 47.667969 59.738281 47.667969 58.386719 47.667969 57.019531 C 47.671875 56.859375 47.742188 56.707031 47.863281 56.601562 C 48.636719 56.074219 49.484375 55.582031 50.578125 54.988281 Z M 50.578125 54.988281 "/>
<path style=" stroke:none;fill-rule:nonzero;fill:url(#linear3);" d="M 43.738281 42.066406 C 43.738281 43.609375 43.738281 44.976562 43.738281 46.328125 C 43.71875 46.488281 43.636719 46.632812 43.507812 46.730469 C 42.679688 47.238281 41.832031 47.710938 40.898438 48.253906 C 40.898438 46.765625 40.898438 45.398438 40.898438 44.011719 C 40.910156 43.855469 40.996094 43.714844 41.128906 43.628906 C 41.957031 43.117188 42.769531 42.644531 43.738281 42.066406 Z M 43.738281 42.066406 "/>
<path style=" stroke:none;fill-rule:nonzero;fill:url(#linear4);" d="M 49.574219 42.101562 C 49.574219 43.59375 49.574219 44.925781 49.574219 46.273438 C 49.558594 46.476562 49.457031 46.664062 49.289062 46.78125 C 48.496094 47.292969 47.667969 47.746094 46.699219 48.324219 L 46.699219 47.0625 C 46.742188 46.28125 46.742188 45.496094 46.699219 44.714844 C 46.582031 44.128906 46.898438 43.546875 47.457031 43.328125 C 48.144531 42.996094 48.816406 42.574219 49.574219 42.101562 Z M 49.574219 42.101562 "/>
<path style=" stroke:none;fill-rule:nonzero;fill:url(#linear5);" d="M 40.898438 41.488281 C 40.898438 39.980469 40.898438 38.613281 40.898438 37.265625 C 40.933594 37.09375 41.035156 36.941406 41.179688 36.84375 C 41.972656 36.335938 42.769531 35.878906 43.683594 35.316406 C 43.683594 36.789062 43.683594 38.140625 43.683594 39.507812 C 43.679688 39.683594 43.59375 39.851562 43.457031 39.964844 C 42.644531 40.472656 41.761719 40.945312 40.898438 41.488281 Z M 40.898438 41.488281 "/>
<path style=" stroke:none;fill-rule:nonzero;fill:url(#linear6);" d="M 49.554688 32.179688 C 49.554688 33.6875 49.554688 35.003906 49.554688 36.316406 C 49.53125 36.535156 49.417969 36.730469 49.238281 36.859375 C 48.480469 37.332031 47.722656 37.773438 46.859375 38.28125 C 46.859375 38.015625 46.769531 37.824219 46.75 37.632812 C 46.75 36.527344 46.75 35.40625 46.75 34.300781 C 46.769531 34.074219 46.878906 33.867188 47.050781 33.722656 C 47.792969 33.195312 48.601562 32.742188 49.554688 32.179688 Z M 49.554688 32.179688 "/>
<path style=" stroke:none;fill-rule:nonzero;fill:url(#linear7);" d="M 30.480469 73.886719 L 30.480469 69.503906 C 30.503906 69.371094 30.570312 69.253906 30.675781 69.167969 L 33.390625 67.574219 C 33.390625 69.117188 33.390625 70.554688 33.390625 71.972656 C 33.390625 72.097656 33.230469 72.253906 33.105469 72.324219 C 32.277344 72.832031 31.449219 73.304688 30.480469 73.886719 Z M 30.480469 73.886719 "/>
<path style=" stroke:none;fill-rule:nonzero;fill:url(#linear8);" d="M 25.753906 76.621094 C 25.753906 75.148438 25.753906 73.78125 25.753906 72.429688 C 25.789062 72.183594 25.933594 71.964844 26.144531 71.832031 C 26.917969 71.34375 27.730469 70.886719 28.664062 70.34375 C 28.601562 71.097656 28.601562 71.851562 28.664062 72.605469 C 28.875 73.335938 28.78125 74.117188 28.402344 74.777344 C 28.023438 75.4375 27.394531 75.917969 26.65625 76.113281 C 26.34375 76.261719 26.042969 76.433594 25.753906 76.621094 Z M 25.753906 76.621094 "/>
<path style=" stroke:none;fill-rule:nonzero;fill:url(#linear9);" d="M 30.480469 67.117188 C 30.480469 65.59375 30.480469 64.207031 30.480469 62.824219 C 30.488281 62.667969 30.566406 62.527344 30.691406 62.4375 L 33.371094 60.824219 L 33.371094 65.277344 C 33.359375 65.394531 33.296875 65.496094 33.195312 65.558594 Z M 30.480469 67.117188 "/>
<path style=" stroke:none;fill-rule:nonzero;fill:url(#linear10);" d="M 28.664062 56.84375 C 28.664062 58.316406 28.664062 59.632812 28.664062 60.964844 C 28.660156 61.183594 28.570312 61.390625 28.417969 61.542969 C 27.589844 62.070312 26.761719 62.542969 25.808594 63.105469 C 25.863281 62.058594 25.863281 61.011719 25.808594 59.964844 C 25.675781 59.503906 25.738281 59.011719 25.980469 58.597656 C 26.222656 58.183594 26.625 57.886719 27.09375 57.773438 C 27.636719 57.496094 28.160156 57.1875 28.664062 56.84375 Z M 28.664062 56.84375 "/>
<path style=" stroke:none;fill-rule:nonzero;fill:url(#linear11);" d="M 67.996094 61.769531 C 67.996094 60.265625 67.996094 58.878906 67.996094 57.492188 C 68.015625 57.316406 68.109375 57.15625 68.257812 57.054688 L 70.832031 55.53125 C 70.832031 55.847656 70.832031 56.054688 70.832031 56.265625 C 70.832031 57.355469 70.832031 58.441406 70.832031 59.527344 C 70.832031 59.738281 70.832031 60.070312 70.65625 60.160156 C 69.863281 60.613281 68.980469 61.105469 67.996094 61.769531 Z M 67.996094 61.769531 "/>
<path style=" stroke:none;fill-rule:nonzero;fill:url(#linear12);" d="M 67.996094 54.898438 C 67.996094 53.410156 67.996094 52.078125 67.996094 50.726562 C 68.003906 50.53125 68.101562 50.351562 68.257812 50.234375 C 69.070312 49.726562 69.898438 49.253906 70.867188 48.675781 C 70.804688 49.417969 70.804688 50.160156 70.867188 50.902344 C 71.089844 51.632812 71 52.421875 70.617188 53.082031 C 70.238281 53.746094 69.601562 54.226562 68.859375 54.410156 C 68.554688 54.542969 68.265625 54.710938 67.996094 54.898438 Z M 67.996094 54.898438 "/>
<path style=" stroke:none;fill-rule:nonzero;fill:url(#linear13);" d="M 72.808594 43.242188 L 66.742188 46.203125 C 66.488281 46.316406 66.230469 46.417969 65.96875 46.503906 L 65.96875 35.582031 C 66 35.164062 65.820312 34.753906 65.492188 34.492188 C 61.542969 30.988281 57.605469 27.480469 53.679688 23.976562 C 53.550781 23.816406 53.363281 23.710938 53.160156 23.6875 C 52.953125 23.664062 52.75 23.722656 52.585938 23.851562 C 47.0625 27.160156 41.523438 30.445312 35.964844 33.703125 C 35.566406 33.902344 35.332031 34.316406 35.363281 34.757812 C 35.363281 38.875 35.363281 42.996094 35.363281 47.027344 C 35.390625 47.515625 35.128906 47.976562 34.695312 48.203125 C 30.535156 50.710938 26.40625 53.25 22.246094 55.777344 C 21.921875 55.957031 21.742188 56.320312 21.789062 56.6875 C 21.789062 63.699219 21.789062 70.710938 21.789062 77.722656 L 24.132812 77.722656 C 24.132812 71.132812 24.132812 64.558594 24.132812 57.96875 C 24.097656 57.570312 24.304688 57.1875 24.664062 57.003906 C 28.101562 54.917969 31.539062 52.796875 34.976562 50.675781 L 35.328125 50.535156 C 35.328125 50.832031 35.328125 51.078125 35.328125 51.324219 C 35.328125 60.964844 35.328125 70.605469 35.328125 80.25 L 37.707031 80.25 C 37.707031 73.132812 37.707031 66.03125 37.707031 58.914062 C 37.707031 56.441406 37.707031 53.953125 37.707031 51.464844 C 37.707031 51.289062 37.707031 51.113281 37.707031 50.746094 C 39.367188 51.972656 40.828125 53.164062 42.414062 54.25 C 43.417969 54.835938 43.972656 55.960938 43.824219 57.109375 C 43.824219 63.890625 43.824219 70.675781 43.824219 77.480469 L 46.207031 77.480469 C 46.207031 70.011719 46.207031 62.542969 46.207031 55.074219 C 46.257812 54.476562 45.972656 53.894531 45.464844 53.566406 C 43.015625 51.8125 40.632812 50.0625 38.203125 48.203125 C 37.839844 47.984375 37.625 47.589844 37.636719 47.167969 C 37.636719 43.433594 37.636719 39.683594 37.636719 35.949219 C 37.648438 35.617188 37.800781 35.300781 38.0625 35.089844 L 51.351562 27.183594 L 51.828125 26.972656 L 51.828125 27.851562 C 51.828125 44.398438 51.828125 60.941406 51.828125 77.480469 L 54.207031 77.480469 C 54.207031 61.117188 54.207031 44.753906 54.207031 28.394531 C 54.207031 28.164062 54.207031 27.9375 54.207031 27.710938 L 54.402344 27.621094 C 55.195312 28.324219 55.988281 29.007812 56.78125 29.726562 C 58.878906 31.582031 60.925781 33.460938 63.058594 35.300781 C 63.574219 35.730469 63.839844 36.386719 63.765625 37.054688 C 63.765625 47.175781 63.765625 57.285156 63.765625 67.382812 L 63.765625 67.976562 L 66.089844 67.976562 C 66.089844 61.96875 66.089844 55.945312 66.089844 49.902344 C 66.03125 49.460938 66.289062 49.039062 66.707031 48.886719 C 68.683594 47.941406 70.640625 46.941406 72.613281 45.976562 L 72.929688 45.855469 Z M 72.808594 43.242188 "/>
<path style=" stroke:none;fill-rule:nonzero;fill:url(#linear14);" d="M 75.964844 46.1875 L 75.964844 43.453125 L 75.382812 43.082031 L 75.382812 53.601562 L 75.503906 53.601562 C 75.503906 51.324219 75.503906 49.027344 75.503906 46.746094 L 75.503906 45.835938 Z M 75.964844 46.1875 "/>
<path style=" stroke:none;fill-rule:nonzero;fill:url(#linear15);" d="M 77.460938 27.917969 C 74.347656 18.816406 67.894531 11.214844 59.390625 6.636719 C 51.863281 2.828125 43.527344 0.871094 35.082031 0.921875 C 26.8125 0.746094 18.546875 0.921875 10.277344 0.921875 C 7.449219 0.878906 4.738281 2.046875 2.839844 4.132812 C 1.0625 5.949219 0.0898438 8.398438 0.140625 10.933594 L 1.464844 10.933594 C 11.933594 10.933594 22.371094 10.933594 32.949219 10.933594 C 37.628906 10.886719 42.300781 11.398438 46.859375 12.457031 C 53.453125 13.890625 59.316406 17.621094 63.394531 22.976562 C 69.71875 31.15625 71.578125 41.914062 68.363281 51.726562 C 65.703125 61.234375 58.175781 68.625 48.585938 71.148438 C 46.078125 71.863281 43.511719 72.347656 40.917969 72.605469 L 32.542969 73.585938 C 30.867188 73.753906 29.207031 74.03125 27.570312 74.429688 C 25.933594 74.828125 24.40625 75.582031 23.09375 76.636719 C 21.847656 77.609375 21.121094 79.09375 21.121094 80.667969 C 21.121094 81.5625 20.871094 83.175781 22.230469 83.140625 C 28.011719 82.964844 33.8125 82.894531 39.59375 82.683594 C 43.824219 82.535156 48.011719 81.835938 52.058594 80.597656 C 67.179688 76.039062 78.089844 62.917969 79.753906 47.292969 C 80.5 40.746094 79.71875 34.113281 77.460938 27.917969 Z M 77.460938 27.917969 "/>
</g>
</svg>
