<svg id="Layer_1" data-name="Layer 1" xmlns="http://www.w3.org/2000/svg" xmlns:xlink="http://www.w3.org/1999/xlink" viewBox="0 0 45.38 55.52"><defs><linearGradient id="New_Gradient_Swatch_1" x1="7.31" y1="34.19" x2="31.39" y2="34.19" gradientUnits="userSpaceOnUse"><stop offset="0" stop-color="#2269f5"/><stop offset="0.09" stop-color="#2e72f6"/><stop offset="0.3" stop-color="#4984f8"/><stop offset="0.53" stop-color="#5c91f9"/><stop offset="0.76" stop-color="#6798fa"/><stop offset="1" stop-color="#6b9bfa"/></linearGradient><linearGradient id="New_Gradient_Swatch_1-2" x1="34.24" y1="41.2" x2="35.95" y2="41.2" xlink:href="#New_Gradient_Swatch_1"/><linearGradient id="New_Gradient_Swatch_1-3" x1="34.3" y1="34.92" x2="35.95" y2="34.92" xlink:href="#New_Gradient_Swatch_1"/><linearGradient id="New_Gradient_Swatch_1-4" x1="30.51" y1="27.53" x2="32.12" y2="27.53" xlink:href="#New_Gradient_Swatch_1"/><linearGradient id="New_Gradient_Swatch_1-5" x1="33.79" y1="27.56" x2="35.43" y2="27.56" xlink:href="#New_Gradient_Swatch_1"/><linearGradient id="New_Gradient_Swatch_1-6" x1="30.51" y1="23.67" x2="32.1" y2="23.67" xlink:href="#New_Gradient_Swatch_1"/><linearGradient id="New_Gradient_Swatch_1-7" x1="33.82" y1="21.86" x2="35.42" y2="21.86" xlink:href="#New_Gradient_Swatch_1"/><linearGradient id="New_Gradient_Swatch_1-8" x1="24.6" y1="42.11" x2="26.25" y2="42.11" xlink:href="#New_Gradient_Swatch_1"/><linearGradient id="New_Gradient_Swatch_1-9" x1="21.92" y1="43.68" x2="23.63" y2="43.68" xlink:href="#New_Gradient_Swatch_1"/><linearGradient id="New_Gradient_Swatch_1-10" x1="24.6" y1="38.25" x2="26.24" y2="38.25" xlink:href="#New_Gradient_Swatch_1"/><linearGradient id="New_Gradient_Swatch_1-11" x1="21.91" y1="35.97" x2="23.57" y2="35.97" xlink:href="#New_Gradient_Swatch_1"/><linearGradient id="New_Gradient_Swatch_1-12" x1="45.88" y1="35.17" x2="47.53" y2="35.17" xlink:href="#New_Gradient_Swatch_1"/><linearGradient id="New_Gradient_Swatch_1-13" x1="45.88" y1="31.31" x2="47.57" y2="31.31" xlink:href="#New_Gradient_Swatch_1"/><linearGradient id="New_Gradient_Swatch_1-14" x1="19.66" y1="31.41" x2="53.36" y2="31.41" xlink:href="#New_Gradient_Swatch_1"/><linearGradient id="New_Gradient_Swatch_1-15" x1="19.66" y1="29.36" x2="53.36" y2="29.36" xlink:href="#New_Gradient_Swatch_1"/><linearGradient id="New_Gradient_Swatch_1-16" x1="7.39" y1="25.71" x2="52.69" y2="25.71" xlink:href="#New_Gradient_Swatch_1"/></defs><title>60x60</title><path d="M31.39,52a5.79,5.79,0,0,1-5.81,5.77c-5.89,0-11.78,0-17.67,0-.58,0-.6-.26-.6-.69q0-16.16,0-32.29V11.36c0-.71,0-.71.72-.71,1.43,0,2.87,0,4.31,0,.53,0,.71.11.71.69q0,19.85,0,39.7c0,1.17-.1,1,1,1l16.63,0Z" transform="translate(-7.31 -2.24)" style="fill:url(#New_Gradient_Swatch_1)"/><path d="M36,39.4c0,.87,0,1.65,0,2.42a.39.39,0,0,1-.13.27c-.48.3-1,.58-1.54.9a10.64,10.64,0,0,0,0-1.5,1.36,1.36,0,0,1,.95-1.68A4.73,4.73,0,0,0,36,39.4Z" transform="translate(-7.31 -2.24)" style="fill:url(#New_Gradient_Swatch_1-2)"/><path d="M36,33.13c0,.88,0,1.64,0,2.41a.33.33,0,0,1-.1.24c-.49.31-1,.6-1.55.93,0-.87,0-1.64,0-2.42a.34.34,0,0,1,.11-.24C34.9,33.75,35.38,33.47,36,33.13Z" transform="translate(-7.31 -2.24)" style="fill:url(#New_Gradient_Swatch_1-3)"/><path d="M32.12,25.76c0,.88,0,1.66,0,2.43a.34.34,0,0,1-.13.23c-.47.29-.95.56-1.48.87,0-.85,0-1.63,0-2.42a.29.29,0,0,1,.13-.22C31.11,26.36,31.57,26.09,32.12,25.76Z" transform="translate(-7.31 -2.24)" style="fill:url(#New_Gradient_Swatch_1-4)"/><path d="M35.43,25.78c0,.85,0,1.61,0,2.38a.39.39,0,0,1-.16.29c-.45.29-.92.55-1.47.88v-.72a12,12,0,0,0,0-1.34.7.7,0,0,1,.43-.79C34.62,26.29,35,26.05,35.43,25.78Z" transform="translate(-7.31 -2.24)" style="fill:url(#New_Gradient_Swatch_1-5)"/><path d="M30.51,25.43c0-.86,0-1.64,0-2.41a.38.38,0,0,1,.16-.24c.45-.29.9-.55,1.42-.87,0,.84,0,1.61,0,2.39a.35.35,0,0,1-.13.26C31.5,24.85,31,25.12,30.51,25.43Z" transform="translate(-7.31 -2.24)" style="fill:url(#New_Gradient_Swatch_1-6)"/><path d="M35.42,20.12c0,.86,0,1.61,0,2.36a.44.44,0,0,1-.18.31c-.43.27-.86.52-1.35.81,0-.15-.05-.26-.06-.37,0-.63,0-1.27,0-1.9A.48.48,0,0,1,34,21C34.42,20.7,34.88,20.44,35.42,20.12Z" transform="translate(-7.31 -2.24)" style="fill:url(#New_Gradient_Swatch_1-7)"/><path d="M24.6,43.91v-2.5a.31.31,0,0,1,.11-.19l1.54-.91c0,.88,0,1.7,0,2.51,0,.07-.09.16-.16.2C25.62,43.31,25.15,43.58,24.6,43.91Z" transform="translate(-7.31 -2.24)" style="fill:url(#New_Gradient_Swatch_1-8)"/><path d="M21.92,45.47c0-.84,0-1.62,0-2.39a.48.48,0,0,1,.22-.34c.44-.28.9-.54,1.43-.85a7.86,7.86,0,0,0,0,1.29,1.61,1.61,0,0,1-1.14,2A4.67,4.67,0,0,0,21.92,45.47Z" transform="translate(-7.31 -2.24)" style="fill:url(#New_Gradient_Swatch_1-9)"/><path d="M24.6,40.05c0-.87,0-1.66,0-2.45a.29.29,0,0,1,.12-.22l1.52-.92V39a.21.21,0,0,1-.1.16Z" transform="translate(-7.31 -2.24)" style="fill:url(#New_Gradient_Swatch_1-10)"/><path d="M23.57,34.19c0,.84,0,1.59,0,2.35a.48.48,0,0,1-.14.33c-.47.3-.94.57-1.48.89a17.66,17.66,0,0,0,0-1.79,1,1,0,0,1,.73-1.25A8.39,8.39,0,0,0,23.57,34.19Z" transform="translate(-7.31 -2.24)" style="fill:url(#New_Gradient_Swatch_1-11)"/><path d="M45.88,37c0-.86,0-1.65,0-2.44a.35.35,0,0,1,.15-.25l1.46-.87c0,.18,0,.3,0,.42,0,.62,0,1.24,0,1.86,0,.12,0,.31-.1.36C46.94,36.34,46.44,36.62,45.88,37Z" transform="translate(-7.31 -2.24)" style="fill:url(#New_Gradient_Swatch_1-12)"/><path d="M45.88,33.08c0-.85,0-1.61,0-2.38a.37.37,0,0,1,.15-.28c.46-.29.93-.56,1.48-.89a7.61,7.61,0,0,0,0,1.27,1.59,1.59,0,0,1-1.14,2A3,3,0,0,0,45.88,33.08Z" transform="translate(-7.31 -2.24)" style="fill:url(#New_Gradient_Swatch_1-13)"/><path d="M48.61,26.43l-3.44,1.69a4.61,4.61,0,0,1-.44.17V22.06a.72.72,0,0,0-.27-.62q-3.36-3-6.7-6a.44.44,0,0,0-.62-.07q-4.7,2.83-9.43,5.62a.62.62,0,0,0-.34.6c0,2.35,0,4.7,0,7a.71.71,0,0,1-.38.67c-2.36,1.43-4.7,2.88-7.06,4.32a.52.52,0,0,0-.26.52q0,6,0,12H21c0-3.76,0-7.51,0-11.27a.56.56,0,0,1,.3-.55c1.95-1.19,3.9-2.4,5.85-3.61l.2-.08c0,.17,0,.31,0,.45,0,5.5,0,11,0,16.5H28.7c0-4.06,0-8.11,0-12.17,0-1.41,0-2.83,0-4.25,0-.1,0-.2,0-.41.94.7,1.77,1.38,2.67,2a1.65,1.65,0,0,1,.8,1.63c0,3.87,0,7.74,0,11.62h1.35c0-4.26,0-8.52,0-12.78a.93.93,0,0,0-.42-.86c-1.39-1-2.74-2-4.12-3.06a.67.67,0,0,1-.32-.59c0-2.13,0-4.27,0-6.4a.66.66,0,0,1,.24-.49l7.54-4.51.27-.12v.5q0,14.16,0,28.31h1.35q0-14,0-28c0-.13,0-.26,0-.39l.11-.05c.45.4.9.79,1.35,1.2,1.19,1.06,2.35,2.13,3.56,3.18a1.14,1.14,0,0,1,.4,1q0,8.66,0,17.3v.34h1.32q0-5.14,0-10.31a.54.54,0,0,1,.35-.58c1.12-.54,2.23-1.11,3.35-1.66l.18-.07Z" transform="translate(-7.31 -2.24)" style="fill:url(#New_Gradient_Swatch_1-14)"/><path d="M50.4,28.11V26.55l-.33-.21v6h.07c0-1.3,0-2.61,0-3.91v-.52Z" transform="translate(-7.31 -2.24)" style="fill:url(#New_Gradient_Swatch_1-15)"/><path d="M51.25,17.69A21.77,21.77,0,0,0,41,5.55,30,30,0,0,0,27.21,2.29c-4.69-.1-9.38,0-14.07,0A5.58,5.58,0,0,0,8.92,4.12,5.42,5.42,0,0,0,7.39,8h.75C14.08,8,20,8,26,8a33.25,33.25,0,0,1,7.89.87,16.07,16.07,0,0,1,9.38,6,17.84,17.84,0,0,1,2.82,16.4A15.86,15.86,0,0,1,34.87,42.35a24.74,24.74,0,0,1-4.35.83l-4.75.56a20.5,20.5,0,0,0-2.82.48,6.52,6.52,0,0,0-2.54,1.26,2.93,2.93,0,0,0-1.12,2.3c0,.51-.14,1.43.63,1.41,3.28-.1,6.57-.14,9.85-.26a27.4,27.4,0,0,0,7.07-1.19,22.31,22.31,0,0,0,15.71-19A24.37,24.37,0,0,0,51.25,17.69Z" transform="translate(-7.31 -2.24)" style="fill:url(#New_Gradient_Swatch_1-16)"/></svg>