<svg xmlns="http://www.w3.org/2000/svg" width="19.996" height="13.997" viewBox="0 0 19.996 13.997">
  <path id="solid_money-check" data-name="solid money-check" d="M0,45a1,1,0,0,0,1,1H19a1,1,0,0,0,1-1V35H0Zm14-6.5a.5.5,0,0,1,.5-.5h3a.5.5,0,0,1,.5.5v1a.5.5,0,0,1-.5.5h-3a.5.5,0,0,1-.5-.5Zm0,3.749a.25.25,0,0,1,.25-.25h3.5a.25.25,0,0,1,.25.25v.5a.25.25,0,0,1-.25.25h-3.5a.25.25,0,0,1-.25-.25Zm-12-3A.25.25,0,0,1,2.25,39h9.5a.25.25,0,0,1,.25.25v.5a.25.25,0,0,1-.25.25H2.25a.25.25,0,0,1-.25-.25Zm0,3A.25.25,0,0,1,2.25,42h5.5a.25.25,0,0,1,.25.25v.5a.25.25,0,0,1-.25.25H2.25a.25.25,0,0,1-.25-.25ZM19.5,32H.5a.5.5,0,0,0-.5.5V34H20V32.5A.5.5,0,0,0,19.5,32Z" transform="translate(0 -32)"/>
</svg>
