<svg xmlns="http://www.w3.org/2000/svg" width="19.997" height="13.998" viewBox="0 0 19.997 13.998">
  <path id="solid_users" data-name="solid users" d="M3,38a2,2,0,1,0-2-2A2,2,0,0,0,3,38Zm14,0a2,2,0,1,0-2-2A2,2,0,0,0,17,38Zm1,1H16a1.994,1.994,0,0,0-1.409.581A4.57,4.57,0,0,1,16.935,43H19a1,1,0,0,0,1-1V41A2,2,0,0,0,18,39Zm-8,0a3.5,3.5,0,1,0-3.5-3.5A3.5,3.5,0,0,0,10,39Zm2.4,1h-.259a4.832,4.832,0,0,1-4.281,0H7.6A3.6,3.6,0,0,0,4,43.6v.9A1.5,1.5,0,0,0,5.5,46h9A1.5,1.5,0,0,0,16,44.5v-.9A3.6,3.6,0,0,0,12.4,40Zm-6.99-.419A1.994,1.994,0,0,0,4,39H2a2,2,0,0,0-2,2v1a1,1,0,0,0,1,1H3.059a4.582,4.582,0,0,1,2.35-3.418Z" transform="translate(0 -32)"/>
</svg>
